PathFileType	4	(X/Y/Z)	C:\Users\°ÂÌØÂü\Desktop\20210112\bx_n_5_1802-Unnamed.trc
DataRate	CameraRate	NumFrames	NumMarkers	Units	OrigDataRate	OrigDataStartFrame	OrigNumFrames
50.00	50.00	       5	0	mm	50.00	262	       523
Frame#	Time	
		

262	5.220	-676.40387	93.38987	1854.18604	-594.74402	238.13432	1068.48438	-573.13391	104.25070	1360.34192				-714.34650	-32.64661	571.29755	-583.49762	-16.00045	805.52936	-658.37433	-82.05371	1542.97278	-673.37195	206.31380	538.89984	-697.71539	266.59772	748.22888	-714.88757	68.62280	217.29054	-770.25604	252.21240	505.31033	-517.94250	-72.86047	143.11974	-549.83856	-32.85716	162.20103	-789.68805	42.36423	177.39607	-710.71002	155.14964	217.89067	-597.16394	22.77972	169.10364	-674.61285	174.85304	159.23149	-794.53705	176.40694	186.11870	-769.20428	225.63669	205.83127	-592.13342	222.15738	174.83031	-882.67053	296.19333	144.58157	-556.56403	257.65265	163.86987	-662.20337	300.04132	155.10452	-625.44513	309.08829	157.02295	-528.19403	303.93927	146.40359	-685.37305	283.15900	878.82190				-759.88013	-41.90029	491.45660	-758.96777	-17.87228	208.12375	-875.93561	-78.84620	141.20265	-661.48938	-75.55431	877.48096	-685.91754	-62.26747	762.43433	-660.67944	14.06284	522.03162	-707.30225	-36.21161	618.33600	-671.65680	52.17392	159.70125	-729.41370	243.11244	579.66766	-609.79456	-80.67540	154.89438	-651.18585	-70.78517	158.96819	-729.15906	246.74081	645.95197	-682.93011	144.28226	582.91327	-684.40552	72.27741	578.01672	-791.65137	91.49060	1061.05786	-582.86938	216.07991	816.69012				-671.85162	276.09021	1557.67493	
263	5.240	-676.80945	93.53177	1854.12500	-594.87360	237.50386	1068.02893	-574.03729	103.63390	1360.25562				-714.44714	-32.75797	571.19000	-583.85126	-16.47080	805.72369	-659.25269	-81.98849	1543.30920	-673.50201	206.17192	538.80731	-698.01276	266.24402	747.99512	-714.98730	68.57790	217.39400	-770.33734	252.16629	505.49268	-517.87634	-72.83504	142.86841	-549.80304	-32.77202	162.17799	-789.69092	42.30616	177.34663	-710.75482	154.98865	217.68123	-597.12164	22.57842	169.16359	-674.80457	174.78462	159.19275	-794.70630	176.20271	186.03802	-769.28845	225.53528	206.04942	-592.22583	222.10468	174.79947	-882.47406	296.15048	144.65424	-556.64014	257.68985	163.95024	-662.26007	300.09235	154.99619	-625.56360	309.26874	157.01619	-528.39325	304.07083	146.22517	-685.54706	283.29517	879.13562				-760.20911	-42.03387	491.25494	-759.17828	-17.90350	207.93550	-875.93561	-78.84620	141.20265	-661.95624	-76.04947	877.57635	-686.44934	-62.76859	762.61304	-661.33331	13.58231	521.69543	-707.56378	-36.21617	618.21991	-671.46515	51.98423	159.87823	-729.61426	242.87518	579.49353	-610.00714	-80.50117	154.74316	-651.26770	-70.87573	158.91142	-729.23096	246.82930	646.13544	-682.94391	144.12335	582.70813	-684.53400	72.07146	577.94556	-791.91620	91.11541	1060.85327	-582.79608	215.75618	816.79242				-672.43561	276.14807	1557.75073	
264	5.260	-677.62042	93.76692	1854.20776				-574.58813	103.26913	1360.26819				-714.68982	-32.85481	571.03534	-584.37720	-16.90864	805.71100	-659.80176	-82.07359	1543.41553	-673.75464	206.10121	538.73431	-698.47113	266.06592	748.16736	-715.04767	68.54774	217.57529	-770.77307	251.90773	505.23630	-517.91315	-72.76249	142.91928	-549.88702	-32.70860	162.13849	-789.71509	42.30889	177.43524	-710.89136	154.90947	217.80000	-597.14001	22.74357	169.25151	-674.35535	174.76425	159.09717	-794.82300	176.12198	185.90393	-769.31677	225.47963	205.96939	-592.41132	222.14984	174.75121	-882.77618	296.21317	144.65536	-556.59979	257.60477	163.84712	-662.26080	300.01910	155.06128	-625.49951	309.24579	156.98621	-528.05511	304.37372	146.41058	-685.91669	282.88071	879.14014				-760.53607	-42.46568	491.23346	-759.05847	-17.87115	207.85764	-875.85522	-78.73365	141.22168	-662.37683	-76.13361	877.31702	-686.87146	-63.18148	762.64374	-661.44385	13.44803	521.70660	-707.62817	-36.57731	617.94409	-671.55634	51.87897	159.48216	-730.06390	242.23856	579.26263	-609.90765	-80.49403	155.05040	-651.34192	-70.85286	158.97527	-729.62653	246.43285	645.79291	-683.22601	144.13168	582.65204	-685.01740	71.67651	577.78815	-792.40906	90.87088	1060.57336	-583.58984	215.59552	816.67395				-672.96277	275.81427	1557.54370	
265	5.280	-677.97827	93.90611	1854.09607				-574.91132	102.94941	1360.25464				-714.97687	-33.00772	570.79895	-584.92590	-17.36428	805.67688	-660.26996	-82.46616	1543.44714	-674.12152	206.05759	538.66138	-698.82373	265.62244	748.03198	-715.10803	68.51762	217.75662	-770.91583	251.94914	505.22153	-517.92938	-72.76001	143.03142	-549.80817	-32.81881	162.26086	-789.63153	42.42802	177.25339	-710.89832	154.94072	217.54060	-597.08527	22.65185	169.25777	-674.48419	174.80870	159.16429	-794.65619	176.26889	185.70209	-769.27063	225.61739	205.87384	-592.33783	222.04024	174.76010	-882.55273	296.27115	144.72351	-556.59979	257.60477	163.84712	-662.25226	300.08228	155.12186	-625.56360	309.26874	157.01619	-528.16821	304.10495	146.35884	-687.08728	281.69913	878.48981				-760.70337	-42.63715	491.12436	-759.16486	-17.99896	208.00725	-875.95618	-78.67986	141.17555	-662.97284	-76.62759	877.29565	-687.12860	-63.30848	762.65955	-662.46014	12.81037	521.52344	-707.77100	-36.44072	617.66693	-671.54810	52.06892	159.92342	-730.19128	242.49208	579.27563	-609.93524	-80.85612	154.97261	-651.30841	-70.95496	158.84134	-729.96356	246.41576	646.02753	-683.41895	144.05493	582.60962	-685.26294	71.07124	578.12292	-792.75665	90.48975	1060.63428	-584.27893	215.05913	816.58838				-673.86584	275.25735	1557.42529	
266	5.300	-678.54242	94.24448	1854.09375				-575.47900	102.89783	1360.31750				-715.36255	-33.56599	570.84167	-585.19220	-17.42859	805.74280	-660.82233	-82.81445	1543.58301	-674.28363	205.89659	538.47955	-699.09601	265.55206	748.23761	-715.10803	68.51762	217.75662	-771.13416	251.94843	505.50693	-518.01770	-72.71304	143.06015	-549.87946	-32.88676	162.31261	-789.69952	42.25108	177.29196	-710.89832	154.94072	217.54060	-597.22253	22.58105	169.03798	-675.03772	174.91254	158.83781	-794.58490	176.43933	185.74748	-769.36353	225.57817	205.73431	-592.13342	222.15738	174.83031	-882.64691	296.28064	144.68781	-556.65173	257.69501	163.86432	-662.25226	300.08228	155.12186	-625.56360	309.26874	157.01619	-528.16870	304.17886	146.32680	-687.29663	281.79132	878.90588				-760.78644	-43.02043	491.17722	-759.23309	-17.93711	207.91852	-875.85034	-78.68372	141.27127	-663.56366	-76.88992	877.30780	-687.52429	-63.08511	762.25348	-662.51672	12.76360	521.61023	-708.29297	-37.02558	617.88971	-671.70776	52.13258	159.87802	-730.47906	242.61653	579.81000	-609.89667	-80.77342	154.95470	-651.30841	-70.95496	158.84134	-730.80640	245.62825	645.78613	-683.58136	143.98228	582.56183	-685.36310	71.05743	578.21533	-793.84894	90.06651	1060.88928	-584.78143	214.71751	816.55426				-674.42694	275.27826	1557.35303	
